{
 "cells": [
  {
   "cell_type": "code",
   "execution_count": 1,
   "metadata": {},
   "outputs": [],
   "source": [
    "import re\n",
    "import pandas as pd\n",
    "import numpy as np\n",
    "import string\n",
    "import subprocess"
   ]
  },
  {
   "cell_type": "code",
   "execution_count": 2,
   "metadata": {},
   "outputs": [
    {
     "name": "stdout",
     "output_type": "stream",
     "text": [
      "1,eng\n"
     ]
    },
    {
     "name": "stderr",
     "output_type": "stream",
     "text": [
      "ffmpeg version 6.1-1build2~22.04 Copyright (c) 2000-2023 the FFmpeg developers\n",
      "  built with gcc 11 (Ubuntu 11.4.0-1ubuntu1~22.04)\n",
      "  configuration: --prefix=/usr --extra-version='1build2~22.04' --toolchain=hardened --libdir=/usr/lib/x86_64-linux-gnu --incdir=/usr/include/x86_64-linux-gnu --arch=amd64 --enable-gpl --disable-stripping --disable-librav1e --enable-gnutls --enable-ladspa --enable-libaom --enable-libass --enable-libbluray --enable-libbs2b --enable-libcaca --enable-libcdio --enable-libcodec2 --enable-libdav1d --enable-libflite --enable-libfontconfig --enable-libfreetype --enable-libfribidi --enable-libglslang --enable-libgme --enable-libgsm --enable-libjack --enable-libmp3lame --enable-libmysofa --enable-libopenjpeg --enable-libopenmpt --enable-libopus --enable-libpulse --enable-librabbitmq --enable-librist --enable-librubberband --enable-libshine --enable-libsnappy --enable-libsoxr --enable-libspeex --enable-libsrt --enable-libssh --enable-libtheora --enable-libtwolame --enable-libvidstab --enable-libvorbis --enable-libvpx --enable-libwebp --enable-libx265 --enable-libxml2 --enable-libxvid --enable-libzimg --enable-libzmq --enable-libzvbi --enable-lv2 --enable-omx --enable-openal --enable-opencl --enable-opengl --enable-sdl2 --disable-sndio --enable-libjxl --enable-pocketsphinx --enable-librsvg --enable-libvpl --disable-libmfx --enable-libdc1394 --enable-libdrm --enable-libiec61883 --enable-chromaprint --enable-frei0r --enable-libsvtav1 --enable-libx264 --enable-libplacebo --disable-librav1e --enable-shared\n",
      "  libavutil      58. 29.100 / 58. 29.100\n",
      "  libavcodec     60. 31.102 / 60. 31.102\n",
      "  libavformat    60. 16.100 / 60. 16.100\n",
      "  libavdevice    60.  3.100 / 60.  3.100\n",
      "  libavfilter     9. 12.100 /  9. 12.100\n",
      "  libswscale      7.  5.100 /  7.  5.100\n",
      "  libswresample   4. 12.100 /  4. 12.100\n",
      "  libpostproc    57.  3.100 / 57.  3.100\n",
      "[matroska,webm @ 0x5564378a2280] Invalid Block Addition value 0x0 for unknown Block Addition Mapping type 68766345, name \"\"\n",
      "[matroska,webm @ 0x5564378a2280] Stream #11: not enough frames to estimate rate; consider increasing probesize\n",
      "[matroska,webm @ 0x5564378a2280] Could not find codec parameters for stream 7 (Subtitle: hdmv_pgs_subtitle (pgssub)): unspecified size\n",
      "Consider increasing the value for the 'analyzeduration' (0) and 'probesize' (5000000) options\n",
      "[matroska,webm @ 0x5564378a2280] Could not find codec parameters for stream 8 (Subtitle: hdmv_pgs_subtitle (pgssub)): unspecified size\n",
      "Consider increasing the value for the 'analyzeduration' (0) and 'probesize' (5000000) options\n",
      "[matroska,webm @ 0x5564378a2280] Could not find codec parameters for stream 9 (Subtitle: hdmv_pgs_subtitle (pgssub)): unspecified size\n",
      "Consider increasing the value for the 'analyzeduration' (0) and 'probesize' (5000000) options\n",
      "[matroska,webm @ 0x5564378a2280] Could not find codec parameters for stream 10 (Subtitle: hdmv_pgs_subtitle (pgssub)): unspecified size\n",
      "Consider increasing the value for the 'analyzeduration' (0) and 'probesize' (5000000) options\n",
      "Input #0, matroska,webm, from 'videos/Midway.mkv':\n",
      "  Metadata:\n",
      "    title           : Midway\n",
      "    encoder         : libebml v1.4.2 + libmatroska v1.6.4\n",
      "    creation_time   : 2021-11-22T18:54:18.000000Z\n",
      "  Duration: 02:18:25.28, start: 0.000000, bitrate: 77172 kb/s\n",
      "  Chapters:\n",
      "    Chapter #0:0: start 0.000000, end 576.659417\n",
      "      Metadata:\n",
      "        title           : Chapter 01\n",
      "    Chapter #0:1: start 576.659417, end 1057.681625\n",
      "      Metadata:\n",
      "        title           : Chapter 02\n",
      "    Chapter #0:2: start 1057.681625, end 1513.553708\n",
      "      Metadata:\n",
      "        title           : Chapter 03\n",
      "    Chapter #0:3: start 1513.553708, end 1833.414917\n",
      "      Metadata:\n",
      "        title           : Chapter 04\n",
      "    Chapter #0:4: start 1833.414917, end 2374.288583\n",
      "      Metadata:\n",
      "        title           : Chapter 05\n",
      "    Chapter #0:5: start 2374.288583, end 2772.978542\n",
      "      Metadata:\n",
      "        title           : Chapter 06\n",
      "    Chapter #0:6: start 2772.978542, end 3228.475250\n",
      "      Metadata:\n",
      "        title           : Chapter 07\n",
      "    Chapter #0:7: start 3228.475250, end 3632.670708\n",
      "      Metadata:\n",
      "        title           : Chapter 08\n",
      "    Chapter #0:8: start 3632.670708, end 4141.971167\n",
      "      Metadata:\n",
      "        title           : Chapter 09\n",
      "    Chapter #0:9: start 4141.971167, end 4570.774542\n",
      "      Metadata:\n",
      "        title           : Chapter 10\n",
      "    Chapter #0:10: start 4570.774542, end 5088.041292\n",
      "      Metadata:\n",
      "        title           : Chapter 11\n",
      "    Chapter #0:11: start 5088.041292, end 5509.337167\n",
      "      Metadata:\n",
      "        title           : Chapter 12\n",
      "    Chapter #0:12: start 5509.337167, end 6128.664208\n",
      "      Metadata:\n",
      "        title           : Chapter 13\n",
      "    Chapter #0:13: start 6128.664208, end 6677.796125\n",
      "      Metadata:\n",
      "        title           : Chapter 14\n",
      "    Chapter #0:14: start 6677.796125, end 7341.083750\n",
      "      Metadata:\n",
      "        title           : Chapter 15\n",
      "    Chapter #0:15: start 7341.083750, end 8305.280000\n",
      "      Metadata:\n",
      "        title           : Chapter 16\n",
      "  Stream #0:0(eng): Video: hevc (Main 10), yuv420p10le(tv, bt2020nc/bt2020/smpte2084), 3840x2160 [SAR 1:1 DAR 16:9], 23.98 fps, 23.98 tbr, 1k tbn\n",
      "    Metadata:\n",
      "      BPS             : 68050040\n",
      "      DURATION        : 02:18:25.256000000\n",
      "      NUMBER_OF_FRAMES: 199126\n",
      "      NUMBER_OF_BYTES : 70646625788\n",
      "      SOURCE_ID       : 001011\n",
      "      _STATISTICS_WRITING_APP: mkvmerge v63.0.0 ('Everything') 64-bit\n",
      "      _STATISTICS_WRITING_DATE_UTC: 2021-11-22 18:54:18\n",
      "      _STATISTICS_TAGS: BPS DURATION NUMBER_OF_FRAMES NUMBER_OF_BYTES SOURCE_ID\n",
      "    Side data:\n",
      "      DOVI configuration record: version: 1.0, profile: 7, level: 6, rpu flag: 1, el flag: 1, bl flag: 1, compatibility id: 6\n",
      "  Stream #0:1(eng): Audio: truehd (Dolby TrueHD + Dolby Atmos), 48000 Hz, 7.1, s32 (24 bit) (default)\n",
      "    Metadata:\n",
      "      title           : Surround 7.1\n",
      "      BPS             : 3189753\n",
      "      DURATION        : 02:18:25.256000000\n",
      "      NUMBER_OF_FRAMES: 9966307\n",
      "      NUMBER_OF_BYTES : 3311464518\n",
      "      SOURCE_ID       : 001100\n",
      "      _STATISTICS_WRITING_APP: mkvmerge v63.0.0 ('Everything') 64-bit\n",
      "      _STATISTICS_WRITING_DATE_UTC: 2021-11-22 18:54:18\n",
      "      _STATISTICS_TAGS: BPS DURATION NUMBER_OF_FRAMES NUMBER_OF_BYTES SOURCE_ID\n",
      "  Stream #0:2(eng): Audio: flac, 48000 Hz, 7.1, s32 (24 bit)\n",
      "    Metadata:\n",
      "      title           : BassEQ -9dB\n",
      "      BPS             : 4341276\n",
      "      DURATION        : 02:18:25.256000000\n",
      "      NUMBER_OF_FRAMES: 86514\n",
      "      NUMBER_OF_BYTES : 4506926852\n",
      "      _STATISTICS_WRITING_APP: mkvmerge v63.0.0 ('Everything') 64-bit\n",
      "      _STATISTICS_WRITING_DATE_UTC: 2021-11-22 18:54:18\n",
      "      _STATISTICS_TAGS: BPS DURATION NUMBER_OF_FRAMES NUMBER_OF_BYTES\n",
      "  Stream #0:3(eng): Audio: ac3, 48000 Hz, 5.1(side), fltp, 448 kb/s\n",
      "    Metadata:\n",
      "      title           : Surround 5.1\n",
      "      BPS             : 448000\n",
      "      DURATION        : 02:18:25.280000000\n",
      "      NUMBER_OF_FRAMES: 259540\n",
      "      NUMBER_OF_BYTES : 465095680\n",
      "      SOURCE_ID       : 001100\n",
      "      _STATISTICS_WRITING_APP: mkvmerge v63.0.0 ('Everything') 64-bit\n",
      "      _STATISTICS_WRITING_DATE_UTC: 2021-11-22 18:54:18\n",
      "      _STATISTICS_TAGS: BPS DURATION NUMBER_OF_FRAMES NUMBER_OF_BYTES SOURCE_ID\n",
      "  Stream #0:4(eng): Audio: ac3, 48000 Hz, stereo, fltp, 192 kb/s\n",
      "    Metadata:\n",
      "      title           : Stereo\n",
      "      BPS             : 192000\n",
      "      DURATION        : 02:18:24.320000000\n",
      "      NUMBER_OF_FRAMES: 259510\n",
      "      NUMBER_OF_BYTES : 199303680\n",
      "      SOURCE_ID       : 001101\n",
      "      _STATISTICS_WRITING_APP: mkvmerge v63.0.0 ('Everything') 64-bit\n",
      "      _STATISTICS_WRITING_DATE_UTC: 2021-11-22 18:54:18\n",
      "      _STATISTICS_TAGS: BPS DURATION NUMBER_OF_FRAMES NUMBER_OF_BYTES SOURCE_ID\n",
      "  Stream #0:5(spa): Audio: ac3, 48000 Hz, 5.1(side), fltp, 640 kb/s\n",
      "    Metadata:\n",
      "      title           : Surround 5.1\n",
      "      BPS             : 639997\n",
      "      DURATION        : 02:18:25.280000000\n",
      "      NUMBER_OF_FRAMES: 259539\n",
      "      NUMBER_OF_BYTES : 664419840\n",
      "      SOURCE_ID       : 001102\n",
      "      _STATISTICS_WRITING_APP: mkvmerge v63.0.0 ('Everything') 64-bit\n",
      "      _STATISTICS_WRITING_DATE_UTC: 2021-11-22 18:54:18\n",
      "      _STATISTICS_TAGS: BPS DURATION NUMBER_OF_FRAMES NUMBER_OF_BYTES SOURCE_ID\n",
      "  Stream #0:6(eng): Audio: ac3, 48000 Hz, stereo, fltp, 192 kb/s\n",
      "    Metadata:\n",
      "      title           : Stereo\n",
      "      BPS             : 192000\n",
      "      DURATION        : 02:18:25.280000000\n",
      "      NUMBER_OF_FRAMES: 259540\n",
      "      NUMBER_OF_BYTES : 199326720\n",
      "      SOURCE_ID       : 001103\n",
      "      _STATISTICS_WRITING_APP: mkvmerge v63.0.0 ('Everything') 64-bit\n",
      "      _STATISTICS_WRITING_DATE_UTC: 2021-11-22 18:54:18\n",
      "      _STATISTICS_TAGS: BPS DURATION NUMBER_OF_FRAMES NUMBER_OF_BYTES SOURCE_ID\n",
      "  Stream #0:7(eng): Subtitle: hdmv_pgs_subtitle\n",
      "    Metadata:\n",
      "      BPS             : 30083\n",
      "      DURATION        : 02:08:12.873000000\n",
      "      NUMBER_OF_FRAMES: 2462\n",
      "      NUMBER_OF_BYTES : 28928397\n",
      "      SOURCE_ID       : 0012A0\n",
      "      _STATISTICS_WRITING_APP: mkvmerge v63.0.0 ('Everything') 64-bit\n",
      "      _STATISTICS_WRITING_DATE_UTC: 2021-11-22 18:54:18\n",
      "      _STATISTICS_TAGS: BPS DURATION NUMBER_OF_FRAMES NUMBER_OF_BYTES SOURCE_ID\n",
      "  Stream #0:8(eng): Subtitle: hdmv_pgs_subtitle\n",
      "    Metadata:\n",
      "      BPS             : 34451\n",
      "      DURATION        : 02:08:16.043000000\n",
      "      NUMBER_OF_FRAMES: 2902\n",
      "      NUMBER_OF_BYTES : 33142062\n",
      "      SOURCE_ID       : 0012A1\n",
      "      _STATISTICS_WRITING_APP: mkvmerge v63.0.0 ('Everything') 64-bit\n",
      "      _STATISTICS_WRITING_DATE_UTC: 2021-11-22 18:54:18\n",
      "      _STATISTICS_TAGS: BPS DURATION NUMBER_OF_FRAMES NUMBER_OF_BYTES SOURCE_ID\n",
      "  Stream #0:9(spa): Subtitle: hdmv_pgs_subtitle\n",
      "    Metadata:\n",
      "      BPS             : 36437\n",
      "      DURATION        : 02:08:48.367000000\n",
      "      NUMBER_OF_FRAMES: 2934\n",
      "      NUMBER_OF_BYTES : 35200031\n",
      "      SOURCE_ID       : 0012A2\n",
      "      _STATISTICS_WRITING_APP: mkvmerge v63.0.0 ('Everything') 64-bit\n",
      "      _STATISTICS_WRITING_DATE_UTC: 2021-11-22 18:54:18\n",
      "      _STATISTICS_TAGS: BPS DURATION NUMBER_OF_FRAMES NUMBER_OF_BYTES SOURCE_ID\n",
      "  Stream #0:10(spa): Subtitle: hdmv_pgs_subtitle\n",
      "    Metadata:\n",
      "      BPS             : 5252\n",
      "      DURATION        : 02:04:47.751000000\n",
      "      NUMBER_OF_FRAMES: 388\n",
      "      NUMBER_OF_BYTES : 4916277\n",
      "      SOURCE_ID       : 0012A2\n",
      "      _STATISTICS_WRITING_APP: mkvmerge v63.0.0 ('Everything') 64-bit\n",
      "      _STATISTICS_WRITING_DATE_UTC: 2021-11-22 18:54:18\n",
      "      _STATISTICS_TAGS: BPS DURATION NUMBER_OF_FRAMES NUMBER_OF_BYTES SOURCE_ID\n",
      "  Stream #0:11: Video: mjpeg (Baseline), yuvj420p(pc, bt470bg/unknown/unknown), 640x360 [SAR 96:96 DAR 16:9], 90k tbr, 90k tbn (attached pic)\n",
      "    Metadata:\n",
      "      filename        : cover.jpg\n",
      "      mimetype        : image/jpeg\n",
      "Stream mapping:\n",
      "  Stream #0:2 -> #0:0 (flac (native) -> flac (native))\n",
      "Press [q] to stop, [?] for help\n",
      "[flac @ 0x5564378e4dc0] encoding as 24 bits-per-sample, more is considered experimental. Add -strict experimental if you want to encode more than 24 bits-per-sample\n",
      "Output #0, flac, to 'front_center.flac':\n",
      "  Metadata:\n",
      "    title           : Midway\n",
      "    encoder         : Lavf60.16.100\n",
      "  Chapters:\n",
      "    Chapter #0:0: start 0.000000, end 576.659417\n",
      "      Metadata:\n",
      "        title           : Chapter 01\n",
      "    Chapter #0:1: start 576.659417, end 1057.681625\n",
      "      Metadata:\n",
      "        title           : Chapter 02\n",
      "    Chapter #0:2: start 1057.681625, end 1513.553708\n",
      "      Metadata:\n",
      "        title           : Chapter 03\n",
      "    Chapter #0:3: start 1513.553708, end 1833.414917\n",
      "      Metadata:\n",
      "        title           : Chapter 04\n",
      "    Chapter #0:4: start 1833.414917, end 2374.288583\n",
      "      Metadata:\n",
      "        title           : Chapter 05\n",
      "    Chapter #0:5: start 2374.288583, end 2772.978542\n",
      "      Metadata:\n",
      "        title           : Chapter 06\n",
      "    Chapter #0:6: start 2772.978542, end 3228.475250\n",
      "      Metadata:\n",
      "        title           : Chapter 07\n",
      "    Chapter #0:7: start 3228.475250, end 3632.670708\n",
      "      Metadata:\n",
      "        title           : Chapter 08\n",
      "    Chapter #0:8: start 3632.670708, end 4141.971167\n",
      "      Metadata:\n",
      "        title           : Chapter 09\n",
      "    Chapter #0:9: start 4141.971167, end 4570.774542\n",
      "      Metadata:\n",
      "        title           : Chapter 10\n",
      "    Chapter #0:10: start 4570.774542, end 5088.041292\n",
      "      Metadata:\n",
      "        title           : Chapter 11\n",
      "    Chapter #0:11: start 5088.041292, end 5509.337167\n",
      "      Metadata:\n",
      "        title           : Chapter 12\n",
      "    Chapter #0:12: start 5509.337167, end 6128.664208\n",
      "      Metadata:\n",
      "        title           : Chapter 13\n",
      "    Chapter #0:13: start 6128.664208, end 6677.796125\n",
      "      Metadata:\n",
      "        title           : Chapter 14\n",
      "    Chapter #0:14: start 6677.796125, end 7341.083750\n",
      "      Metadata:\n",
      "        title           : Chapter 15\n",
      "    Chapter #0:15: start 7341.083750, end 8305.280000\n",
      "      Metadata:\n",
      "        title           : Chapter 16\n",
      "  Stream #0:0(eng): Audio: flac, 48000 Hz, mono, s32 (24 bit), 128 kb/s\n",
      "    Metadata:\n",
      "      title           : BassEQ -9dB\n",
      "      BPS             : 4341276\n",
      "      DURATION        : 02:18:25.256000000\n",
      "      NUMBER_OF_FRAMES: 86514\n",
      "      NUMBER_OF_BYTES : 4506926852\n",
      "      _STATISTICS_WRITING_APP: mkvmerge v63.0.0 ('Everything') 64-bit\n",
      "      _STATISTICS_WRITING_DATE_UTC: 2021-11-22 18:54:18\n",
      "      _STATISTICS_TAGS: BPS DURATION NUMBER_OF_FRAMES NUMBER_OF_BYTES\n",
      "      encoder         : Lavc60.31.102 flac\n",
      "[out#0/flac @ 0x556437c83e40] video:0kB audio:594869kB subtitle:0kB other streams:0kB global headers:0kB muxing overhead: 0.001363%\n",
      "size=  594877kB time=02:18:25.25 bitrate= 586.8kbits/s speed=11.7x    \n"
     ]
    },
    {
     "data": {
      "text/plain": [
       "CompletedProcess(args='ffmpeg -y -i videos/Midway.mkv -map 0:a:1 -ac 1 front_center.flac', returncode=0)"
      ]
     },
     "execution_count": 2,
     "metadata": {},
     "output_type": "execute_result"
    }
   ],
   "source": [
    "movie_files = 'Midway.mkv'\n",
    "\n",
    "input_file = \"videos/\" + movie_files\n",
    "output_file = \"front_center.flac\"\n",
    "\n",
    "# Get the stream index of the lossless English audio track\n",
    "cmd = f\"ffprobe -v error -select_streams a -show_entries stream=index:stream_tags=language -of csv=p=0 {input_file}\"\n",
    "output = subprocess.check_output(cmd, shell=True).decode(\"utf-8\").strip()\n",
    "stream_index = None\n",
    "for line in output.split(\"\\n\"):\n",
    "    index, language = line.split(\",\")\n",
    "    if language == \"eng\":\n",
    "        stream_index = int(index)\n",
    "        print(line)\n",
    "        break\n",
    "\n",
    "# Extract the center channel of the lossless English audio track\n",
    "cmd = f\"ffmpeg -y -i {input_file} -map 0:a:{stream_index} -ac 1 {output_file}\"\n",
    "subprocess.run(cmd, shell=True)"
   ]
  },
  {
   "cell_type": "code",
   "execution_count": 3,
   "metadata": {},
   "outputs": [
    {
     "name": "stderr",
     "output_type": "stream",
     "text": [
      "torchvision is not available - cannot save figures\n",
      "Lightning automatically upgraded your loaded checkpoint from v1.5.4 to v2.1.0. To apply the upgrade to your files permanently, run `python -m pytorch_lightning.utilities.upgrade_checkpoint ../../../../root/.cache/torch/whisperx-vad-segmentation.bin`\n"
     ]
    },
    {
     "name": "stdout",
     "output_type": "stream",
     "text": [
      "Model was trained with pyannote.audio 0.0.1, yours is 3.1.1. Bad things might happen unless you revert pyannote.audio to 0.x.\n",
      "Model was trained with torch 1.10.0+cu102, yours is 2.0.0. Bad things might happen unless you revert torch to 1.x.\n",
      ">>Performing transcription...\n",
      ">>Performing alignment...\n"
     ]
    },
    {
     "data": {
      "text/plain": [
       "CompletedProcess(args=['whisperx', 'front_center.flac', '--highlight_words', 'True', '--model', 'large-v3', '--language', 'en'], returncode=0)"
      ]
     },
     "execution_count": 3,
     "metadata": {},
     "output_type": "execute_result"
    }
   ],
   "source": [
    "# Define the terminal command as a list of strings\n",
    "whisperx_command = [\n",
    "    'whisperx',\n",
    "    'front_center.flac',\n",
    "    '--highlight_words', 'True',\n",
    "    '--model', 'large-v3',\n",
    "    '--language', 'en'\n",
    "]\n",
    "\n",
    "# Run the whisperx command\n",
    "subprocess.run(whisperx_command, check=True)"
   ]
  },
  {
   "cell_type": "code",
   "execution_count": 4,
   "metadata": {},
   "outputs": [],
   "source": [
    "filename = 'srts/Midway.srt'\n",
    "edlname = 'edls/Midway.edl'"
   ]
  },
  {
   "cell_type": "code",
   "execution_count": 5,
   "metadata": {},
   "outputs": [],
   "source": [
    "def read_four_lines(filename):\n",
    "    with open(filename, 'r') as file:\n",
    "        while True:\n",
    "            # Read 4 lines from the file\n",
    "            lines = [file.readline().strip() for _ in range(4)]\n",
    "\n",
    "            # If there are no more lines left, break the loop\n",
    "            if not lines[0]:\n",
    "                break\n",
    "\n",
    "            yield lines\n",
    "\n",
    "# Example usage:\n",
    "\n",
    "text_groups = read_four_lines(filename)\n",
    "profanity_df = pd.read_csv('dict/profanity.csv',dtype_backend='pyarrow')\n",
    "profanity_df = profanity_df.apply(lambda col: col.str.lower())\n",
    "flat_profanity = profanity_df.values.flatten()\n",
    "flat_profanity = flat_profanity[~pd.isna(flat_profanity)]"
   ]
  },
  {
   "cell_type": "code",
   "execution_count": 6,
   "metadata": {},
   "outputs": [],
   "source": [
    "# Translation table for removing punctuation\n",
    "translator = str.maketrans('', '', string.punctuation)\n",
    "with open(edlname, 'w') as file:\n",
    "    for text in text_groups:\n",
    "        word_between_u = re.search(r'<u>(.*?)</u>', text[2])\n",
    "        if word_between_u:\n",
    "            word = word_between_u.group(1).lower().translate(translator)\n",
    "            if word in flat_profanity:\n",
    "                # Given string\n",
    "                time_string = text[1]\n",
    "\n",
    "                # Using regular expression to extract start and stop times\n",
    "                start_time, stop_time = re.findall(r'(\\d+:\\d+:\\d+,\\d+)', time_string)\n",
    "\n",
    "                # Converting start and stop times to desired format\n",
    "                start_time = start_time.replace(',', '.')\n",
    "                stop_time = stop_time.replace(',', '.')\n",
    "                command = start_time + ' ' + stop_time + ' ' + '1' + ' #' + word\n",
    "                file.write(command+'\\n')"
   ]
  }
 ],
 "metadata": {
  "kernelspec": {
   "display_name": "Python 3",
   "language": "python",
   "name": "python3"
  },
  "language_info": {
   "codemirror_mode": {
    "name": "ipython",
    "version": 3
   },
   "file_extension": ".py",
   "mimetype": "text/x-python",
   "name": "python",
   "nbconvert_exporter": "python",
   "pygments_lexer": "ipython3",
   "version": "3.10.13"
  }
 },
 "nbformat": 4,
 "nbformat_minor": 2
}
